# xmcd CD database file
#
# Track frame offsets:
#	150
#	11152
#	23884
#	42971
#	60446
#	78643
#	94823
#	110340
#	124230
#	140964
#	161291
#	176030
#	190766
#	195266
#	200216
#
# Disc length: 2902 seconds
#
# Revision: 0
# Processed by: cddbd v1.5.2PL0 Copyright (c) Steve Scherf et al.
# Submitted via: CDex 1.70
#
DISCID=d00b540f
DTITLE=Dave Liang - Story of City
DYEAR=2008
DGENRE=Jazz
TTITLE0=01 Author's Note
TTITLE1=02 Preface
TTITLE2=03 Voices
TTITLE3=04 Last Night of the Dynasty
TTITLE4=05 Movement
TTITLE5=06 Love and Warlords
TTITLE6=07 Touchdown
TTITLE7=08 Pace of Light
TTITLE8=09 Call Me Home
TTITLE9=10 Divided We Stand
TTITLE10=11 Last Morning
TTITLE11=12 Afterword
TTITLE12=13 Notes
TTITLE13=14 Bibliography
TTITLE14=15 Acknowledgements
EXTD=YEAR: 2008
EXTT0=
EXTT1=
EXTT2=
EXTT3=
EXTT4=
EXTT5=
EXTT6=
EXTT7=
EXTT8=
EXTT9=
EXTT10=
EXTT11=
EXTT12=
EXTT13=
EXTT14=
PLAYORDER=
